<svg xmlns="http://www.w3.org/2000/svg" viewBox="0 0 64 64">
  <defs>
    <linearGradient id="g" x1="0" y1="0" x2="1" y2="1">
      <stop offset="0" stop-color="#4f8cff"/>
      <stop offset="1" stop-color="#b45cf7"/>
    </linearGradient>
  </defs>
  <rect width="64" height="64" rx="14" fill="url(#g)"/>
  <g fill="#ffffff">
    <g transform="translate(32,32)">
      <rect x="-3" y="-23" width="6" height="13" rx="2.5"/>
      <rect x="-3" y="-23" width="6" height="13" rx="2.5" transform="rotate(45)"/>
      <rect x="-3" y="-23" width="6" height="13" rx="2.5" transform="rotate(90)"/>
      <rect x="-3" y="-23" width="6" height="13" rx="2.5" transform="rotate(135)"/>
      <rect x="-3" y="-23" width="6" height="13" rx="2.5" transform="rotate(180)"/>
      <rect x="-3" y="-23" width="6" height="13" rx="2.5" transform="rotate(225)"/>
      <rect x="-3" y="-23" width="6" height="13" rx="2.5" transform="rotate(270)"/>
      <rect x="-3" y="-23" width="6" height="13" rx="2.5" transform="rotate(315)"/>
    </g>
    <circle cx="32" cy="32" r="13"/>
  </g>
  <circle cx="32" cy="32" r="5.5" fill="url(#g)"/>
</svg>
